0
SECTION
2
HEADER
9
$INSUNITS
70
4
0
ENDSEC
0
SECTION
2
TABLES
0
TABLE
2
LTYPE
0
LTYPE
72
65
70
0
2
CONTINUOUS
3
______
73
0
40
0
0
LTYPE
72
65
70
0
2
DASHED
3
_ _ _ 
73
2
40
7.5
49
5
49
-2.5
0
LTYPE
72
65
70
0
2
DOTTED
3
. . . 
73
2
40
1.5
49
0.5
49
-1
0
ENDTAB
0
TABLE
2
LAYER
0
LAYER
2
0
70
0
62
7
6
CONTINUOUS
0
ENDTAB
0
ENDSEC
0
SECTION
2
ENTITIES
0
LINE
8
0
6
CONTINUOUS
10
-1
20
50
11
-0.6251841
21
52.8470095
0
LINE
8
0
6
CONTINUOUS
10
-0.6251841
20
52.8470095
11
0
21
54.3563374
0
LINE
8
0
6
CONTINUOUS
10
-0.6251841
20
47.1529905
11
0
21
45.6436626
0
LINE
8
0
6
CONTINUOUS
10
-0.6251841
20
47.1529905
11
-1
21
50
0
LINE
8
0
6
CONTINUOUS
10
-1
20
50
11
-1
21
50
0
LINE
8
0
6
CONTINUOUS
10
-11
20
50
11
-10.6251841
21
52.8470095
0
LINE
8
0
6
CONTINUOUS
10
-10.6251841
20
52.8470095
11
-9.5262794
21
55.5
0
LINE
8
0
6
CONTINUOUS
10
-9.5262794
20
55.5
11
-7.7781746
21
57.7781746
0
LINE
8
0
6
CONTINUOUS
10
-7.7781746
20
57.7781746
11
-5.5
21
59.5262794
0
LINE
8
0
6
CONTINUOUS
10
-5.5
20
59.5262794
11
-2.8470095
21
60.6251841
0
LINE
8
0
6
CONTINUOUS
10
-2.8470095
20
60.6251841
11
0
21
61
0
LINE
8
0
6
CONTINUOUS
10
0
20
61
11
0
21
61
0
LINE
8
0
6
CONTINUOUS
10
0
20
39
11
0
21
39
0
LINE
8
0
6
CONTINUOUS
10
0
20
39
11
-2.8470095
21
39.3748159
0
LINE
8
0
6
CONTINUOUS
10
-2.8470095
20
39.3748159
11
-5.5
21
40.4737206
0
LINE
8
0
6
CONTINUOUS
10
-5.5
20
40.4737206
11
-7.7781746
21
42.2218254
0
LINE
8
0
6
CONTINUOUS
10
-7.7781746
20
42.2218254
11
-9.5262794
21
44.5
0
LINE
8
0
6
CONTINUOUS
10
-9.5262794
20
44.5
11
-10.6251841
21
47.1529905
0
LINE
8
0
6
CONTINUOUS
10
-10.6251841
20
47.1529905
11
-11
21
50
0
LINE
8
0
6
CONTINUOUS
10
-11
20
50
11
-11
21
50
0
LINE
8
0
6
CONTINUOUS
10
-21
20
50
11
-20.6251841
21
52.8470095
0
LINE
8
0
6
CONTINUOUS
10
-20.6251841
20
52.8470095
11
-19.5262794
21
55.5
0
LINE
8
0
6
CONTINUOUS
10
-19.5262794
20
55.5
11
-17.7781746
21
57.7781746
0
LINE
8
0
6
CONTINUOUS
10
-17.7781746
20
57.7781746
11
-15.5
21
59.5262794
0
LINE
8
0
6
CONTINUOUS
10
-15.5
20
59.5262794
11
-12.8470095
21
60.6251841
0
LINE
8
0
6
CONTINUOUS
10
-12.8470095
20
60.6251841
11
-10
21
61
0
LINE
8
0
6
CONTINUOUS
10
-10
20
61
11
-7.1529905
21
60.6251841
0
LINE
8
0
6
CONTINUOUS
10
-7.1529905
20
60.6251841
11
-4.5
21
59.5262794
0
LINE
8
0
6
CONTINUOUS
10
-4.5
20
59.5262794
11
-2.2218254
21
57.7781746
0
LINE
8
0
6
CONTINUOUS
10
-2.2218254
20
57.7781746
11
-0.4737206
21
55.5
0
LINE
8
0
6
CONTINUOUS
10
-0.4737206
20
55.5
11
0
21
54.3563374
0
LINE
8
0
6
CONTINUOUS
10
-0.4737206
20
44.5
11
0
21
45.6436626
0
LINE
8
0
6
CONTINUOUS
10
-0.4737206
20
44.5
11
-2.2218254
21
42.2218254
0
LINE
8
0
6
CONTINUOUS
10
-2.2218254
20
42.2218254
11
-4.5
21
40.4737206
0
LINE
8
0
6
CONTINUOUS
10
-4.5
20
40.4737206
11
-7.1529905
21
39.3748159
0
LINE
8
0
6
CONTINUOUS
10
-7.1529905
20
39.3748159
11
-10
21
39
0
LINE
8
0
6
CONTINUOUS
10
-10
20
39
11
-12.8470095
21
39.3748159
0
LINE
8
0
6
CONTINUOUS
10
-12.8470095
20
39.3748159
11
-15.5
21
40.4737206
0
LINE
8
0
6
CONTINUOUS
10
-15.5
20
40.4737206
11
-17.7781746
21
42.2218254
0
LINE
8
0
6
CONTINUOUS
10
-17.7781746
20
42.2218254
11
-19.5262794
21
44.5
0
LINE
8
0
6
CONTINUOUS
10
-19.5262794
20
44.5
11
-20.6251841
21
47.1529905
0
LINE
8
0
6
CONTINUOUS
10
-20.6251841
20
47.1529905
11
-21
21
50
0
LINE
8
0
6
CONTINUOUS
10
-21
20
50
11
-21
21
50
0
LINE
8
0
6
CONTINUOUS
10
-31
20
50
11
-30.6251841
21
52.8470095
0
LINE
8
0
6
CONTINUOUS
10
-30.6251841
20
52.8470095
11
-29.5262794
21
55.5
0
LINE
8
0
6
CONTINUOUS
10
-29.5262794
20
55.5
11
-27.7781746
21
57.7781746
0
LINE
8
0
6
CONTINUOUS
10
-27.7781746
20
57.7781746
11
-25.5
21
59.5262794
0
LINE
8
0
6
CONTINUOUS
10
-25.5
20
59.5262794
11
-22.8470095
21
60.6251841
0
LINE
8
0
6
CONTINUOUS
10
-22.8470095
20
60.6251841
11
-20
21
61
0
LINE
8
0
6
CONTINUOUS
10
-20
20
61
11
-17.1529905
21
60.6251841
0
LINE
8
0
6
CONTINUOUS
10
-17.1529905
20
60.6251841
11
-14.5
21
59.5262794
0
LINE
8
0
6
CONTINUOUS
10
-14.5
20
59.5262794
11
-12.2218254
21
57.7781746
0
LINE
8
0
6
CONTINUOUS
10
-12.2218254
20
57.7781746
11
-10.4737206
21
55.5
0
LINE
8
0
6
CONTINUOUS
10
-10.4737206
20
55.5
11
-9.3748159
21
52.8470095
0
LINE
8
0
6
CONTINUOUS
10
-9.3748159
20
52.8470095
11
-9
21
50
0
LINE
8
0
6
CONTINUOUS
10
-9
20
50
11
-9.3748159
21
47.1529905
0
LINE
8
0
6
CONTINUOUS
10
-9.3748159
20
47.1529905
11
-10.4737206
21
44.5
0
LINE
8
0
6
CONTINUOUS
10
-10.4737206
20
44.5
11
-12.2218254
21
42.2218254
0
LINE
8
0
6
CONTINUOUS
10
-12.2218254
20
42.2218254
11
-14.5
21
40.4737206
0
LINE
8
0
6
CONTINUOUS
10
-14.5
20
40.4737206
11
-17.1529905
21
39.3748159
0
LINE
8
0
6
CONTINUOUS
10
-17.1529905
20
39.3748159
11
-20
21
39
0
LINE
8
0
6
CONTINUOUS
10
-20
20
39
11
-22.8470095
21
39.3748159
0
LINE
8
0
6
CONTINUOUS
10
-22.8470095
20
39.3748159
11
-25.5
21
40.4737206
0
LINE
8
0
6
CONTINUOUS
10
-25.5
20
40.4737206
11
-27.7781746
21
42.2218254
0
LINE
8
0
6
CONTINUOUS
10
-27.7781746
20
42.2218254
11
-29.5262794
21
44.5
0
LINE
8
0
6
CONTINUOUS
10
-29.5262794
20
44.5
11
-30.6251841
21
47.1529905
0
LINE
8
0
6
CONTINUOUS
10
-30.6251841
20
47.1529905
11
-31
21
50
0
LINE
8
0
6
CONTINUOUS
10
-31
20
50
11
-31
21
50
0
LINE
8
0
6
CONTINUOUS
10
-41
20
50
11
-40.6251841
21
52.8470095
0
LINE
8
0
6
CONTINUOUS
10
-40.6251841
20
52.8470095
11
-39.5262794
21
55.5
0
LINE
8
0
6
CONTINUOUS
10
-39.5262794
20
55.5
11
-37.7781746
21
57.7781746
0
LINE
8
0
6
CONTINUOUS
10
-37.7781746
20
57.7781746
11
-35.5
21
59.5262794
0
LINE
8
0
6
CONTINUOUS
10
-35.5
20
59.5262794
11
-32.8470095
21
60.6251841
0
LINE
8
0
6
CONTINUOUS
10
-32.8470095
20
60.6251841
11
-30
21
61
0
LINE
8
0
6
CONTINUOUS
10
-30
20
61
11
-27.1529905
21
60.6251841
0
LINE
8
0
6
CONTINUOUS
10
-27.1529905
20
60.6251841
11
-24.5
21
59.5262794
0
LINE
8
0
6
CONTINUOUS
10
-24.5
20
59.5262794
11
-22.2218254
21
57.7781746
0
LINE
8
0
6
CONTINUOUS
10
-22.2218254
20
57.7781746
11
-20.4737206
21
55.5
0
LINE
8
0
6
CONTINUOUS
10
-20.4737206
20
55.5
11
-19.3748159
21
52.8470095
0
LINE
8
0
6
CONTINUOUS
10
-19.3748159
20
52.8470095
11
-19
21
50
0
LINE
8
0
6
CONTINUOUS
10
-19
20
50
11
-19.3748159
21
47.1529905
0
LINE
8
0
6
CONTINUOUS
10
-19.3748159
20
47.1529905
11
-20.4737206
21
44.5
0
LINE
8
0
6
CONTINUOUS
10
-20.4737206
20
44.5
11
-22.2218254
21
42.2218254
0
LINE
8
0
6
CONTINUOUS
10
-22.2218254
20
42.2218254
11
-24.5
21
40.4737206
0
LINE
8
0
6
CONTINUOUS
10
-24.5
20
40.4737206
11
-27.1529905
21
39.3748159
0
LINE
8
0
6
CONTINUOUS
10
-27.1529905
20
39.3748159
11
-30
21
39
0
LINE
8
0
6
CONTINUOUS
10
-30
20
39
11
-32.8470095
21
39.3748159
0
LINE
8
0
6
CONTINUOUS
10
-32.8470095
20
39.3748159
11
-35.5
21
40.4737206
0
LINE
8
0
6
CONTINUOUS
10
-35.5
20
40.4737206
11
-37.7781746
21
42.2218254
0
LINE
8
0
6
CONTINUOUS
10
-37.7781746
20
42.2218254
11
-39.5262794
21
44.5
0
LINE
8
0
6
CONTINUOUS
10
-39.5262794
20
44.5
11
-40.6251841
21
47.1529905
0
LINE
8
0
6
CONTINUOUS
10
-40.6251841
20
47.1529905
11
-41
21
50
0
LINE
8
0
6
CONTINUOUS
10
-41
20
50
11
-41
21
50
0
LINE
8
0
6
CONTINUOUS
10
-51
20
50
11
-50.6251841
21
52.8470095
0
LINE
8
0
6
CONTINUOUS
10
-50.6251841
20
52.8470095
11
-49.5262794
21
55.5
0
LINE
8
0
6
CONTINUOUS
10
-49.5262794
20
55.5
11
-47.7781746
21
57.7781746
0
LINE
8
0
6
CONTINUOUS
10
-47.7781746
20
57.7781746
11
-45.5
21
59.5262794
0
LINE
8
0
6
CONTINUOUS
10
-45.5
20
59.5262794
11
-42.8470095
21
60.6251841
0
LINE
8
0
6
CONTINUOUS
10
-42.8470095
20
60.6251841
11
-40
21
61
0
LINE
8
0
6
CONTINUOUS
10
-40
20
61
11
-37.1529905
21
60.6251841
0
LINE
8
0
6
CONTINUOUS
10
-37.1529905
20
60.6251841
11
-34.5
21
59.5262794
0
LINE
8
0
6
CONTINUOUS
10
-34.5
20
59.5262794
11
-32.2218254
21
57.7781746
0
LINE
8
0
6
CONTINUOUS
10
-32.2218254
20
57.7781746
11
-30.4737206
21
55.5
0
LINE
8
0
6
CONTINUOUS
10
-30.4737206
20
55.5
11
-29.3748159
21
52.8470095
0
LINE
8
0
6
CONTINUOUS
10
-29.3748159
20
52.8470095
11
-29
21
50
0
LINE
8
0
6
CONTINUOUS
10
-29
20
50
11
-29.3748159
21
47.1529905
0
LINE
8
0
6
CONTINUOUS
10
-29.3748159
20
47.1529905
11
-30.4737206
21
44.5
0
LINE
8
0
6
CONTINUOUS
10
-30.4737206
20
44.5
11
-32.2218254
21
42.2218254
0
LINE
8
0
6
CONTINUOUS
10
-32.2218254
20
42.2218254
11
-34.5
21
40.4737206
0
LINE
8
0
6
CONTINUOUS
10
-34.5
20
40.4737206
11
-37.1529905
21
39.3748159
0
LINE
8
0
6
CONTINUOUS
10
-37.1529905
20
39.3748159
11
-40
21
39
0
LINE
8
0
6
CONTINUOUS
10
-40
20
39
11
-42.8470095
21
39.3748159
0
LINE
8
0
6
CONTINUOUS
10
-42.8470095
20
39.3748159
11
-45.5
21
40.4737206
0
LINE
8
0
6
CONTINUOUS
10
-45.5
20
40.4737206
11
-47.7781746
21
42.2218254
0
LINE
8
0
6
CONTINUOUS
10
-47.7781746
20
42.2218254
11
-49.5262794
21
44.5
0
LINE
8
0
6
CONTINUOUS
10
-49.5262794
20
44.5
11
-50.6251841
21
47.1529905
0
LINE
8
0
6
CONTINUOUS
10
-50.6251841
20
47.1529905
11
-51
21
50
0
LINE
8
0
6
CONTINUOUS
10
-51
20
50
11
-51
21
50
0
LINE
8
0
6
CONTINUOUS
10
-46.33
20
50
11
-46.8
21
50
0
LINE
8
0
6
CONTINUOUS
10
-46.8
20
50
11
-46.8
21
58.32
0
LINE
8
0
6
CONTINUOUS
10
-46.8
20
58.32
11
-49.6
21
58.32
0
LINE
8
0
6
CONTINUOUS
10
-49.6
20
58.32
11
-49.6
21
58.71
0
LINE
8
0
6
CONTINUOUS
10
-49.6
20
58.71
11
-43.52
21
58.71
0
LINE
8
0
6
CONTINUOUS
10
-43.52
20
58.71
11
-43.52
21
58.32
0
LINE
8
0
6
CONTINUOUS
10
-43.52
20
58.32
11
-46.33
21
58.32
0
LINE
8
0
6
CONTINUOUS
10
-46.33
20
58.32
11
-46.33
21
50
0
LINE
8
0
6
CONTINUOUS
10
-36.99
20
50
11
-41.8
21
50
0
LINE
8
0
6
CONTINUOUS
10
-41.8
20
50
11
-41.8
21
58.71
0
LINE
8
0
6
CONTINUOUS
10
-41.8
20
58.71
11
-37.12
21
58.71
0
LINE
8
0
6
CONTINUOUS
10
-37.12
20
58.71
11
-37.12
21
58.32
0
LINE
8
0
6
CONTINUOUS
10
-37.12
20
58.32
11
-41.36
21
58.32
0
LINE
8
0
6
CONTINUOUS
10
-41.36
20
58.32
11
-41.36
21
54.85
0
LINE
8
0
6
CONTINUOUS
10
-41.36
20
54.85
11
-37.81
21
54.85
0
LINE
8
0
6
CONTINUOUS
10
-37.81
20
54.85
11
-37.81
21
54.45
0
LINE
8
0
6
CONTINUOUS
10
-37.81
20
54.45
11
-41.36
21
54.45
0
LINE
8
0
6
CONTINUOUS
10
-41.36
20
54.45
11
-41.36
21
50.4
0
LINE
8
0
6
CONTINUOUS
10
-41.36
20
50.4
11
-36.99
21
50.4
0
LINE
8
0
6
CONTINUOUS
10
-36.99
20
50.4
11
-36.99
21
50
0
LINE
8
0
6
CONTINUOUS
10
-32.84
20
49.84
11
-33.305625
21
49.86375
0
LINE
8
0
6
CONTINUOUS
10
-33.305625
20
49.86375
11
-33.7425
21
49.935
0
LINE
8
0
6
CONTINUOUS
10
-33.7425
20
49.935
11
-34.150625
21
50.05375
0
LINE
8
0
6
CONTINUOUS
10
-34.150625
20
50.05375
11
-34.53
21
50.22
0
LINE
8
0
6
CONTINUOUS
10
-34.53
20
50.22
11
-34.875625
21
50.4175
0
LINE
8
0
6
CONTINUOUS
10
-34.875625
20
50.4175
11
-35.1925
21
50.64
0
LINE
8
0
6
CONTINUOUS
10
-35.1925
20
50.64
11
-35.480625
21
50.8875
0
LINE
8
0
6
CONTINUOUS
10
-35.480625
20
50.8875
11
-35.74
21
51.16
0
LINE
8
0
6
CONTINUOUS
10
-35.74
20
51.16
11
-35.44
21
51.48
0
LINE
8
0
6
CONTINUOUS
10
-35.44
20
51.48
11
-35.188125
21
51.214375
0
LINE
8
0
6
CONTINUOUS
10
-35.188125
20
51.214375
11
-34.9125
21
50.9775
0
LINE
8
0
6
CONTINUOUS
10
-34.9125
20
50.9775
11
-34.613125
21
50.769375
0
LINE
8
0
6
CONTINUOUS
10
-34.613125
20
50.769375
11
-34.29
21
50.59
0
LINE
8
0
6
CONTINUOUS
10
-34.29
20
50.59
11
-33.948125
21
50.445625
0
LINE
8
0
6
CONTINUOUS
10
-33.948125
20
50.445625
11
-33.5925
21
50.3425
0
LINE
8
0
6
CONTINUOUS
10
-33.5925
20
50.3425
11
-33.223125
21
50.280625
0
LINE
8
0
6
CONTINUOUS
10
-33.223125
20
50.280625
11
-32.84
21
50.26
0
LINE
8
0
6
CONTINUOUS
10
-32.84
20
50.26
11
-32.34625
21
50.2925
0
LINE
8
0
6
CONTINUOUS
10
-32.34625
20
50.2925
11
-31.905
21
50.39
0
LINE
8
0
6
CONTINUOUS
10
-31.905
20
50.39
11
-31.51625
21
50.5525
0
LINE
8
0
6
CONTINUOUS
10
-31.51625
20
50.5525
11
-31.18
21
50.78
0
LINE
8
0
6
CONTINUOUS
10
-31.18
20
50.78
11
-30.90875
21
51.058125
0
LINE
8
0
6
CONTINUOUS
10
-30.90875
20
51.058125
11
-30.715
21
51.3725
0
LINE
8
0
6
CONTINUOUS
10
-30.715
20
51.3725
11
-30.59875
21
51.723125
0
LINE
8
0
6
CONTINUOUS
10
-30.59875
20
51.723125
11
-30.56
21
52.11
0
LINE
8
0
6
CONTINUOUS
10
-30.56
20
52.11
11
-30.57375
21
52.39
0
LINE
8
0
6
CONTINUOUS
10
-30.57375
20
52.39
11
-30.615
21
52.64
0
LINE
8
0
6
CONTINUOUS
10
-30.615
20
52.64
11
-30.68375
21
52.86
0
LINE
8
0
6
CONTINUOUS
10
-30.68375
20
52.86
11
-30.78
21
53.05
0
LINE
8
0
6
CONTINUOUS
10
-30.78
20
53.05
11
-30.89875
21
53.216875
0
LINE
8
0
6
CONTINUOUS
10
-30.89875
20
53.216875
11
-31.035
21
53.3675
0
LINE
8
0
6
CONTINUOUS
10
-31.035
20
53.3675
11
-31.18875
21
53.501875
0
LINE
8
0
6
CONTINUOUS
10
-31.18875
20
53.501875
11
-31.36
21
53.62
0
LINE
8
0
6
CONTINUOUS
10
-31.36
20
53.62
11
-31.545625
21
53.728125
0
LINE
8
0
6
CONTINUOUS
10
-31.545625
20
53.728125
11
-31.7425
21
53.8325
0
LINE
8
0
6
CONTINUOUS
10
-31.7425
20
53.8325
11
-31.950625
21
53.933125
0
LINE
8
0
6
CONTINUOUS
10
-31.950625
20
53.933125
11
-32.17
21
54.03
0
LINE
8
0
6
CONTINUOUS
10
-32.17
20
54.03
11
-33.5
21
54.63
0
LINE
8
0
6
CONTINUOUS
10
-33.5
20
54.63
11
-33.688125
21
54.72
0
LINE
8
0
6
CONTINUOUS
10
-33.688125
20
54.72
11
-33.8825
21
54.82
0
LINE
8
0
6
CONTINUOUS
10
-33.8825
20
54.82
11
-34.083125
21
54.93
0
LINE
8
0
6
CONTINUOUS
10
-34.083125
20
54.93
11
-34.29
21
55.05
0
LINE
8
0
6
CONTINUOUS
10
-34.29
20
55.05
11
-34.4875
21
55.185625
0
LINE
8
0
6
CONTINUOUS
10
-34.4875
20
55.185625
11
-34.67
21
55.3425
0
LINE
8
0
6
CONTINUOUS
10
-34.67
20
55.3425
11
-34.8375
21
55.520625
0
LINE
8
0
6
CONTINUOUS
10
-34.8375
20
55.520625
11
-34.99
21
55.72
0
LINE
8
0
6
CONTINUOUS
10
-34.99
20
55.72
11
-35.116875
21
55.939375
0
LINE
8
0
6
CONTINUOUS
10
-35.116875
20
55.939375
11
-35.2075
21
56.1875
0
LINE
8
0
6
CONTINUOUS
10
-35.2075
20
56.1875
11
-35.261875
21
56.464375
0
LINE
8
0
6
CONTINUOUS
10
-35.261875
20
56.464375
11
-35.28
21
56.77
0
LINE
8
0
6
CONTINUOUS
10
-35.28
20
56.77
11
-35.259375
21
57.075
0
LINE
8
0
6
CONTINUOUS
10
-35.259375
20
57.075
11
-35.1975
21
57.36
0
LINE
8
0
6
CONTINUOUS
10
-35.1975
20
57.36
11
-35.094375
21
57.625
0
LINE
8
0
6
CONTINUOUS
10
-35.094375
20
57.625
11
-34.95
21
57.87
0
LINE
8
0
6
CONTINUOUS
10
-34.95
20
57.87
11
-34.775
21
58.091875
0
LINE
8
0
6
CONTINUOUS
10
-34.775
20
58.091875
11
-34.57
21
58.2875
0
LINE
8
0
6
CONTINUOUS
10
-34.57
20
58.2875
11
-34.335
21
58.456875
0
LINE
8
0
6
CONTINUOUS
10
-34.335
20
58.456875
11
-34.07
21
58.6
0
LINE
8
0
6
CONTINUOUS
10
-34.07
20
58.6
11
-33.780625
21
58.718125
0
LINE
8
0
6
CONTINUOUS
10
-33.780625
20
58.718125
11
-33.4725
21
58.8025
0
LINE
8
0
6
CONTINUOUS
10
-33.4725
20
58.8025
11
-33.145625
21
58.853125
0
LINE
8
0
6
CONTINUOUS
10
-33.145625
20
58.853125
11
-32.8
21
58.87
0
LINE
8
0
6
CONTINUOUS
10
-32.8
20
58.87
11
-32.416875
21
58.850625
0
LINE
8
0
6
CONTINUOUS
10
-32.416875
20
58.850625
11
-32.0575
21
58.7925
0
LINE
8
0
6
CONTINUOUS
10
-32.0575
20
58.7925
11
-31.721875
21
58.695625
0
LINE
8
0
6
CONTINUOUS
10
-31.721875
20
58.695625
11
-31.41
21
58.56
0
LINE
8
0
6
CONTINUOUS
10
-31.41
20
58.56
11
-31.12
21
58.4025
0
LINE
8
0
6
CONTINUOUS
10
-31.12
20
58.4025
11
-30.86
21
58.23
0
LINE
8
0
6
CONTINUOUS
10
-30.86
20
58.23
11
-30.63
21
58.0425
0
LINE
8
0
6
CONTINUOUS
10
-30.63
20
58.0425
11
-30.43
21
57.84
0
LINE
8
0
6
CONTINUOUS
10
-30.43
20
57.84
11
-30.7
21
57.54
0
LINE
8
0
6
CONTINUOUS
10
-30.7
20
57.54
11
-30.89875
21
57.73125
0
LINE
8
0
6
CONTINUOUS
10
-30.89875
20
57.73125
11
-31.115
21
57.905
0
LINE
8
0
6
CONTINUOUS
10
-31.115
20
57.905
11
-31.34875
21
58.06125
0
LINE
8
0
6
CONTINUOUS
10
-31.34875
20
58.06125
11
-31.6
21
58.2
0
LINE
8
0
6
CONTINUOUS
10
-31.6
20
58.2
11
-31.87375
21
58.309375
0
LINE
8
0
6
CONTINUOUS
10
-31.87375
20
58.309375
11
-32.165
21
58.3875
0
LINE
8
0
6
CONTINUOUS
10
-32.165
20
58.3875
11
-32.47375
21
58.434375
0
LINE
8
0
6
CONTINUOUS
10
-32.47375
20
58.434375
11
-32.8
21
58.45
0
LINE
8
0
6
CONTINUOUS
10
-32.8
20
58.45
11
-33.236875
21
58.421875
0
LINE
8
0
6
CONTINUOUS
10
-33.236875
20
58.421875
11
-33.6275
21
58.3375
0
LINE
8
0
6
CONTINUOUS
10
-33.6275
20
58.3375
11
-33.971875
21
58.196875
0
LINE
8
0
6
CONTINUOUS
10
-33.971875
20
58.196875
11
-34.27
21
58
0
LINE
8
0
6
CONTINUOUS
10
-34.27
20
58
11
-34.510625
21
57.76125
0
LINE
8
0
6
CONTINUOUS
10
-34.510625
20
57.76125
11
-34.6825
21
57.485
0
LINE
8
0
6
CONTINUOUS
10
-34.6825
20
57.485
11
-34.785625
21
57.17125
0
LINE
8
0
6
CONTINUOUS
10
-34.785625
20
57.17125
11
-34.82
21
56.82
0
LINE
8
0
6
CONTINUOUS
10
-34.82
20
56.82
11
-34.804375
21
56.561875
0
LINE
8
0
6
CONTINUOUS
10
-34.804375
20
56.561875
11
-34.7575
21
56.3275
0
LINE
8
0
6
CONTINUOUS
10
-34.7575
20
56.3275
11
-34.679375
21
56.116875
0
LINE
8
0
6
CONTINUOUS
10
-34.679375
20
56.116875
11
-34.57
21
55.93
0
LINE
8
0
6
CONTINUOUS
10
-34.57
20
55.93
11
-34.438125
21
55.76875
0
LINE
8
0
6
CONTINUOUS
10
-34.438125
20
55.76875
11
-34.2925
21
55.625
0
LINE
8
0
6
CONTINUOUS
10
-34.2925
20
55.625
11
-34.133125
21
55.49875
0
LINE
8
0
6
CONTINUOUS
10
-34.133125
20
55.49875
11
-33.96
21
55.39
0
LINE
8
0
6
CONTINUOUS
10
-33.96
20
55.39
11
-33.78375
21
55.2975
0
LINE
8
0
6
CONTINUOUS
10
-33.78375
20
55.2975
11
-33.615
21
55.21
0
LINE
8
0
6
CONTINUOUS
10
-33.615
20
55.21
11
-33.45375
21
55.1275
0
LINE
8
0
6
CONTINUOUS
10
-33.45375
20
55.1275
11
-33.3
21
55.05
0
LINE
8
0
6
CONTINUOUS
10
-33.3
20
55.05
11
-31.96
21
54.45
0
LINE
8
0
6
CONTINUOUS
10
-31.96
20
54.45
11
-31.719375
21
54.34
0
LINE
8
0
6
CONTINUOUS
10
-31.719375
20
54.34
11
-31.4875
21
54.22
0
LINE
8
0
6
CONTINUOUS
10
-31.4875
20
54.22
11
-31.264375
21
54.09
0
LINE
8
0
6
CONTINUOUS
10
-31.264375
20
54.09
11
-31.05
21
53.95
0
LINE
8
0
6
CONTINUOUS
10
-31.05
20
53.95
11
-30.85
21
53.80125
0
LINE
8
0
6
CONTINUOUS
10
-30.85
20
53.80125
11
-30.67
21
53.635
0
LINE
8
0
6
CONTINUOUS
10
-30.67
20
53.635
11
-30.51
21
53.45125
0
LINE
8
0
6
CONTINUOUS
10
-30.51
20
53.45125
11
-30.37
21
53.25
0
LINE
8
0
6
CONTINUOUS
10
-30.37
20
53.25
11
-30.260625
21
53.02
0
LINE
8
0
6
CONTINUOUS
10
-30.260625
20
53.02
11
-30.1825
21
52.76
0
LINE
8
0
6
CONTINUOUS
10
-30.1825
20
52.76
11
-30.135625
21
52.47
0
LINE
8
0
6
CONTINUOUS
10
-30.135625
20
52.47
11
-30.12
21
52.15
0
LINE
8
0
6
CONTINUOUS
10
-30.12
20
52.15
11
-30.140625
21
51.82875
0
LINE
8
0
6
CONTINUOUS
10
-30.140625
20
51.82875
11
-30.2025
21
51.525
0
LINE
8
0
6
CONTINUOUS
10
-30.2025
20
51.525
11
-30.305625
21
51.23875
0
LINE
8
0
6
CONTINUOUS
10
-30.305625
20
51.23875
11
-30.45
21
50.97
0
LINE
8
0
6
CONTINUOUS
10
-30.45
20
50.97
11
-30.636875
21
50.719375
0
LINE
8
0
6
CONTINUOUS
10
-30.636875
20
50.719375
11
-30.8575
21
50.4975
0
LINE
8
0
6
CONTINUOUS
10
-30.8575
20
50.4975
11
-31.111875
21
50.304375
0
LINE
8
0
6
CONTINUOUS
10
-31.111875
20
50.304375
11
-31.4
21
50.14
0
LINE
8
0
6
CONTINUOUS
10
-31.4
20
50.14
11
-31.71875
21
50.00875
0
LINE
8
0
6
CONTINUOUS
10
-31.71875
20
50.00875
11
-32.065
21
49.915
0
LINE
8
0
6
CONTINUOUS
10
-32.065
20
49.915
11
-32.43875
21
49.85875
0
LINE
8
0
6
CONTINUOUS
10
-32.43875
20
49.85875
11
-32.84
21
49.84
0
LINE
8
0
6
CONTINUOUS
10
-26.14
20
50
11
-26.61
21
50
0
LINE
8
0
6
CONTINUOUS
10
-26.61
20
50
11
-26.61
21
58.32
0
LINE
8
0
6
CONTINUOUS
10
-26.61
20
58.32
11
-29.42
21
58.32
0
LINE
8
0
6
CONTINUOUS
10
-29.42
20
58.32
11
-29.42
21
58.71
0
LINE
8
0
6
CONTINUOUS
10
-29.42
20
58.71
11
-23.34
21
58.71
0
LINE
8
0
6
CONTINUOUS
10
-23.34
20
58.71
11
-23.34
21
58.32
0
LINE
8
0
6
CONTINUOUS
10
-23.34
20
58.32
11
-26.14
21
58.32
0
LINE
8
0
6
CONTINUOUS
10
-26.14
20
58.32
11
-26.14
21
50
0
LINE
8
0
6
CONTINUOUS
10
0
20
0
11
-0.5
21
0.5
0
LINE
8
0
6
CONTINUOUS
10
-140
20
100
11
-139.5
21
99.5
0
ENDSEC
0
EOF